HIERARCHY
ROOT Hips
{
	OFFSET 0.000000 0.000000 0.000000
	CHANNELS 6 Xposition Yposition Zposition Zrotation Yrotation Xrotation 
	JOINT LHipJoint
	{
		OFFSET 0.000000 0.000000 0.000000
		CHANNELS 3 Zrotation Yrotation Xrotation
		JOINT LeftUpLeg
		{
			OFFSET 1.363060 -1.794630 0.839290
			CHANNELS 3 Zrotation Yrotation Xrotation
			JOINT LeftLeg
			{
				OFFSET 2.448110 -6.726130 0.000000
				CHANNELS 3 Zrotation Yrotation Xrotation
				JOINT LeftFoot
				{
					OFFSET 2.562200 -7.039590 0.000000
					CHANNELS 3 Zrotation Yrotation Xrotation
					JOINT LeftToeBase
					{
						OFFSET 0.157640 -0.433110 2.322550
						CHANNELS 3 Zrotation Yrotation Xrotation
						End Site
						{
							OFFSET 0.000000 0.000000 0.000000
						}
					}
				}
			}
		}
	}
	JOINT RHipJoint
	{
		OFFSET 0.000000 0.000000 0.000000
		CHANNELS 3 Zrotation Yrotation Xrotation
		JOINT RightUpLeg
		{
			OFFSET -1.305520 -1.794630 0.839290
			CHANNELS 3 Zrotation Yrotation Xrotation
			JOINT RightLeg
			{
				OFFSET -2.542530 -6.985550 0.000000
				CHANNELS 3 Zrotation Yrotation Xrotation
				JOINT RightFoot
				{
					OFFSET -2.568260 -7.056230 0.000000
					CHANNELS 3 Zrotation Yrotation Xrotation
					JOINT RightToeBase
					{
						OFFSET -0.164730 -0.452590 2.363150
						CHANNELS 3 Zrotation Yrotation Xrotation
						End Site
						{
							OFFSET 0.000000 0.000000 0.000000
						}
					}
				}
			}
		}
	}
	JOINT LowerBack
	{
		OFFSET 0.000000 0.000000 0.000000
		CHANNELS 3 Zrotation Yrotation Xrotation
		JOINT Spine
		{
			OFFSET 0.028270 2.035590 -0.193380
			CHANNELS 3 Zrotation Yrotation Xrotation
			JOINT Spine1
			{
				OFFSET 0.056720 2.048850 -0.042750
				CHANNELS 3 Zrotation Yrotation Xrotation
				JOINT Neck
				{
					OFFSET 0.000000 0.000000 0.000000
					CHANNELS 3 Zrotation Yrotation Xrotation
					JOINT Neck1
					{
						OFFSET -0.054170 1.746240 0.172020
						CHANNELS 3 Zrotation Yrotation Xrotation
						JOINT Head
						{
							OFFSET 0.104070 1.761360 -0.123970
							CHANNELS 3 Zrotation Yrotation Xrotation
							End Site
							{
								OFFSET 0.000000 0.000000 0.000000
							}
						}
					}
				}
				JOINT LeftShoulder
				{
					OFFSET 0.000000 0.000000 0.000000
					CHANNELS 3 Zrotation Yrotation Xrotation
					JOINT LeftArm
					{
						OFFSET 3.362410 1.200890 -0.311210
						CHANNELS 3 Zrotation Yrotation Xrotation
						JOINT LeftForeArm
						{
							OFFSET 4.983000 -0.000000 -0.000000
							CHANNELS 3 Zrotation Yrotation Xrotation
							JOINT LeftHand
							{
								OFFSET 3.483560 -0.000000 -0.000000
								CHANNELS 3 Zrotation Yrotation Xrotation
								JOINT LeftFingerBase
								{
									OFFSET 0.000000 0.000000 0.000000
									CHANNELS 3 Zrotation Yrotation Xrotation
									JOINT LeftHandIndex1
									{
										OFFSET 0.715260 -0.000000 -0.000000
										CHANNELS 3 Zrotation Yrotation Xrotation
										End Site
										{
											OFFSET 0.000000 0.000000 0.000000
										}
									}
								}
								JOINT LThumb
								{
									OFFSET 0.000000 0.000000 0.000000
									CHANNELS 3 Zrotation Yrotation Xrotation
									End Site
									{
										OFFSET 0.000000 0.000000 0.000000
									}
								}
							}
						}
					}
				}
				JOINT RightShoulder
				{
					OFFSET 0.000000 0.000000 0.000000
					CHANNELS 3 Zrotation Yrotation Xrotation
					JOINT RightArm
					{
						OFFSET -3.136600 1.374050 -0.404650
						CHANNELS 3 Zrotation Yrotation Xrotation
						JOINT RightForeArm
						{
							OFFSET -5.241900 -0.000000 -0.000000
							CHANNELS 3 Zrotation Yrotation Xrotation
							JOINT RightHand
							{
								OFFSET -3.444170 -0.000000 -0.000000
								CHANNELS 3 Zrotation Yrotation Xrotation
								JOINT RightFingerBase
								{
									OFFSET 0.000000 0.000000 0.000000
									CHANNELS 3 Zrotation Yrotation Xrotation
									JOINT RightHandIndex1
									{
										OFFSET -0.622530 -0.000000 -0.000000
										CHANNELS 3 Zrotation Yrotation Xrotation
										End Site
										{
											OFFSET 0.000000 0.000000 0.000000
										}
									}
								}
								JOINT RThumb
								{
									OFFSET 0.000000 0.000000 0.000000
									CHANNELS 3 Zrotation Yrotation Xrotation
									End Site
									{
										OFFSET 0.000000 0.000000 0.000000
									}
								}
							}
						}
					}
				}
			}
		}
	}
}
MOTION
Frames: 4
Frame Time: 0.008333
-1.576588 16.173905 -45.036313 -0.060000 46.010233 -0.127615 1.966651 0.234201 1.883482 -10.921932 22.491826 -30.539055 11.849883 17.981841 63.905794 -4.452218 14.010479 -11.032954 0.773500 -5.615700 -15.673200 -8.716738 0.756217 -6.351212 11.420643 -26.998736 -49.451116 -5.155193 -14.857927 39.507986 -4.997204 1.607610 40.163065 -1.255500 -7.103400 20.022000 -5.926472 -0.662468 13.414262 0.706153 -1.861499 -3.240943 4.427236 -0.223085 -9.713880 -12.316123 -15.639663 1.896557 7.026431 -21.467440 7.722462 6.019800 -10.914900 4.087400 3.944487 -9.853571 2.166937 -72.788865 4.547076 73.317322 114.294753 -53.274461 -88.824299 1.397919 -1.974201 -85.446200 -12.188393 36.234943 -6.446100 -7.125000 0.000000 0.000000 -51.864500 60.374800 -22.950800 -8.062878 9.631952 2.764251 56.826434 25.862179 -4.028876 -64.119541 45.659264 -54.517995 2.141507 2.567066 20.720167 -47.377023 -20.297528 25.002200 7.125000 0.000000 0.000000 -25.032900 -62.522600 11.023100 
-1.577754 16.174955 -45.038179 -0.180627 45.987045 -0.187028 1.981917 0.236436 1.875386 -10.860210 22.511895 -30.579629 11.861492 17.980279 63.907671 -4.486057 14.068806 -11.025792 0.782800 -5.648500 -15.768000 -8.679979 0.776457 -6.349161 11.512216 -27.004043 -49.476574 -5.152034 -14.851470 39.452446 -4.969878 1.476507 40.585153 -1.030900 -6.458200 18.119900 -5.846655 -0.613304 13.421774 0.706555 -1.782246 -3.241334 4.418574 -0.194595 -9.685317 -12.273134 -15.662789 1.774800 7.023172 -21.488952 7.724801 5.977300 -10.920900 4.125100 3.956254 -9.878741 2.159495 -72.834867 4.355898 73.332890 114.080012 -53.306993 -88.660413 1.396729 -1.961859 -85.343258 -12.422534 36.199128 -6.598800 -7.125000 0.000000 0.000000 -52.044700 60.292700 -22.955100 -8.048830 9.646949 2.764737 56.721108 25.875993 -4.249718 -64.096129 45.636093 -54.536256 2.142499 2.577309 20.733838 -47.391713 -20.289316 25.018900 7.125000 0.000000 0.000000 -25.056200 -62.536300 11.042200 
-1.579037 16.174255 -45.037945 -0.176983 45.994058 -0.189303 1.981738 0.232776 1.874747 -10.860882 22.500521 -30.583076 11.859714 17.980344 63.908678 -4.570284 14.219785 -11.044606 0.799800 -5.708000 -15.939400 -8.671733 0.774999 -6.349952 11.521187 -27.024381 -49.472806 -5.155801 -14.849636 39.405726 -4.966866 1.409793 41.013935 -0.820800 -5.780600 16.149200 -5.830086 -0.642835 13.393159 0.706302 -1.818326 -3.243120 4.395253 -0.210589 -9.715935 -12.292464 -15.653832 1.874376 7.016164 -21.478394 7.733307 5.998700 -10.921200 4.104700 3.950168 -9.863647 2.163347 -72.802188 4.463246 73.363895 114.148965 -53.301898 -88.713469 1.371588 -1.941305 -85.396963 -12.956120 36.352136 -6.967200 -7.125000 0.000000 0.000000 -52.705100 60.247800 -23.292200 -8.054916 9.636283 2.761900 56.808490 25.813609 -4.073406 -64.111801 45.661949 -54.524683 2.144159 2.568256 20.700145 -47.431462 -20.298726 25.051400 7.125000 0.000000 0.000000 -25.126500 -62.546900 11.081500 
-1.579620 16.175188 -45.036663 -0.151036 46.005407 -0.180651 1.977092 0.236445 1.877350 -10.863459 22.499798 -30.569634 11.861736 17.982248 63.913804 -4.500986 14.095588 -11.029205 0.786000 -5.659700 -15.800200 -8.665355 0.770668 -6.349263 11.507914 -27.037991 -49.446349 -5.154827 -14.845927 39.354595 -4.973977 1.369983 41.409897 -0.622100 -5.047500 14.044100 -5.869486 -0.622027 13.409982 0.705720 -1.796669 -3.240831 4.417013 -0.201173 -9.677512 -12.276638 -15.653792 1.783213 7.019076 -21.474025 7.742455 5.977500 -10.916600 4.135800 3.951789 -9.869990 2.159317 -72.805453 4.386084 73.367814 114.112028 -53.302261 -88.682227 1.392068 -1.963367 -85.386374 -12.480560 36.178691 -6.629800 -7.125000 0.000000 0.000000 -52.061700 60.262900 -22.927800 -8.050726 9.639884 2.760944 56.751526 25.837495 -4.181778 -64.086924 45.644117 -54.516002 2.142757 2.572215 20.690701 -47.408643 -20.242272 24.988700 7.125000 0.000000 0.000000 -25.065800 -62.477000 11.011600 
